<?xml version="1.0" encoding="UTF-8" standalone="no"?>
<!-- Created with Inkscape (http://www.inkscape.org/) -->

<svg
   xmlns:dc="http://purl.org/dc/elements/1.1/"
   xmlns:cc="http://creativecommons.org/ns#"
   xmlns:rdf="http://www.w3.org/1999/02/22-rdf-syntax-ns#"
   xmlns:svg="http://www.w3.org/2000/svg"
   xmlns="http://www.w3.org/2000/svg"
   xmlns:sodipodi="http://sodipodi.sourceforge.net/DTD/sodipodi-0.dtd"
   xmlns:inkscape="http://www.inkscape.org/namespaces/inkscape"
   width="256"
   height="256"
   viewBox="0 0 256 256"
   id="svg4742"
   version="1.1"
   inkscape:version="0.91 r13725"
   sodipodi:docname="accessories-calculator.svg">
  <defs
     id="defs4744" />
  <sodipodi:namedview
     id="base"
     pagecolor="#ffffff"
     bordercolor="#666666"
     borderopacity="1.0"
     inkscape:pageopacity="0.0"
     inkscape:pageshadow="2"
     inkscape:zoom="1.6703009"
     inkscape:cx="183.5"
     inkscape:cy="134"
     inkscape:document-units="px"
     inkscape:current-layer="layer1"
     showgrid="false"
     units="px"
     inkscape:window-width="1920"
     inkscape:window-height="1027"
     inkscape:window-x="-8"
     inkscape:window-y="-8"
     inkscape:window-maximized="1"
     showguides="false"
     inkscape:guide-bbox="true"
     inkscape:snap-intersection-paths="true"
     inkscape:object-nodes="true">
    <inkscape:grid
       type="xygrid"
       id="grid5290"
       empspacing="4" />
    <sodipodi:guide
       position="0,80"
       orientation="0,1"
       id="guide4148" />
    <sodipodi:guide
       position="80,256"
       orientation="1,0"
       id="guide4150" />
    <sodipodi:guide
       position="176,256"
       orientation="1,0"
       id="guide4152" />
    <sodipodi:guide
       position="0,176"
       orientation="0,1"
       id="guide4154" />
    <sodipodi:guide
       position="0,208"
       orientation="0,1"
       id="guide4156" />
    <sodipodi:guide
       position="0,48"
       orientation="0,1"
       id="guide4158" />
    <sodipodi:guide
       position="8,256"
       orientation="1,0"
       id="guide4160" />
    <sodipodi:guide
       position="248,256"
       orientation="1,0"
       id="guide4162" />
    <sodipodi:guide
       position="0,232"
       orientation="0,1"
       id="guide4164" />
    <sodipodi:guide
       position="0,24"
       orientation="0,1"
       id="guide4166" />
    <sodipodi:guide
       position="24,256"
       orientation="1,0"
       id="guide4168" />
    <sodipodi:guide
       position="0,248"
       orientation="0,1"
       id="guide4170" />
    <sodipodi:guide
       position="208,256"
       orientation="1,0"
       id="guide4174" />
    <sodipodi:guide
       position="232,256"
       orientation="1,0"
       id="guide4176" />
    <sodipodi:guide
       position="0,8"
       orientation="0,1"
       id="guide4178" />
    <sodipodi:guide
       position="48,256"
       orientation="1,0"
       id="guide4775" />
  </sodipodi:namedview>
  <metadata
     id="metadata4747">
    <rdf:RDF>
      <cc:Work
         rdf:about="">
        <dc:format>image/svg+xml</dc:format>
        <dc:type
           rdf:resource="http://purl.org/dc/dcmitype/StillImage" />
        <dc:title></dc:title>
      </cc:Work>
    </rdf:RDF>
  </metadata>
  <g
     inkscape:label="Layer 1"
     inkscape:groupmode="layer"
     id="layer1"
     transform="translate(0,-796.36216)">
    <g
       id="g4205">
      <rect
         ry="7.9999776"
         y="820.36218"
         x="24"
         height="208"
         width="208"
         id="rect4163"
         style="opacity:1;fill:#37474f;fill-opacity:1;stroke:none;stroke-width:1;stroke-miterlimit:4;stroke-dasharray:none;stroke-dashoffset:0;stroke-opacity:0.25098039" />
      <path
         id="rect4165"
         transform="translate(0,796.36216)"
         d="M 32 24 C 27.568012 24 24 27.568012 24 32 L 24 104 L 24 120 L 24 128 L 32 128 L 120 128 L 128 128 L 128 120 L 128 104 L 128 32 L 128 24 L 120 24 L 32 24 z "
         style="opacity:1;fill:#78909c;fill-opacity:1;stroke:none;stroke-width:1;stroke-miterlimit:4;stroke-dasharray:none;stroke-dashoffset:0;stroke-opacity:0.25098039" />
      <path
         id="rect4167"
         transform="translate(0,796.36216)"
         d="M 24 128 L 24 152 L 24 224 C 24 228.43199 27.568012 232 32 232 L 108 232 L 120 232 L 128 232 L 128 224 L 128 208 L 128 136 L 128 128 L 24 128 z "
         style="opacity:1;fill:#546e7a;fill-opacity:1;stroke:none;stroke-width:1;stroke-miterlimit:4;stroke-dasharray:none;stroke-dashoffset:0;stroke-opacity:0.25098039" />
      <circle
         r="70"
         cy="974.36218"
         cx="178"
         id="path4169"
         style="opacity:1;fill:#00bfa5;fill-opacity:1;stroke:none;stroke-width:1;stroke-miterlimit:4;stroke-dasharray:none;stroke-dashoffset:0;stroke-opacity:0.25098039" />
      <path
         id="rect4181"
         transform="translate(0,796.36216)"
         d="M 72 56 L 72 72 L 56 72 L 56 80 L 72 80 L 72 96 L 80 96 L 80 80 L 96 80 L 96 72 L 80 72 L 80 56 L 72 56 z "
         style="opacity:1;fill:#ffffff;fill-opacity:1;stroke:none;stroke-width:1;stroke-miterlimit:4;stroke-dasharray:none;stroke-dashoffset:0;stroke-opacity:0.25098039" />
      <path
         id="path4186"
         transform="translate(0,796.36216)"
         d="M 160 72 L 160 80 L 172 80 L 176 80 L 184 80 L 192 80 L 200 80 L 200 72 L 188 72 L 184 72 L 176 72 L 172 72 L 160 72 z "
         style="opacity:1;fill:#ffffff;fill-opacity:1;stroke:none;stroke-width:1;stroke-miterlimit:4;stroke-dasharray:none;stroke-dashoffset:0;stroke-opacity:0.25098039" />
      <path
         inkscape:connector-curvature="0"
         style="opacity:1;fill:#ffffff;fill-opacity:1;stroke:none;stroke-width:1;stroke-miterlimit:4;stroke-dasharray:none;stroke-dashoffset:0;stroke-opacity:0.25098039"
         d="m 160,980.36216 0,8 12,0 4,0 8,0 8,0 8,0 0,-8 -12,0 -4,0 -8,0 -4,0 -12,0 z"
         id="path4194" />
      <path
         id="path4196"
         d="m 160,964.36216 0,8 12,0 4,0 8,0 8,0 8,0 0,-8 -12,0 -4,0 -8,0 -4,0 -12,0 z"
         style="opacity:1;fill:#ffffff;fill-opacity:1;stroke:none;stroke-width:1;stroke-miterlimit:4;stroke-dasharray:none;stroke-dashoffset:0;stroke-opacity:0.25098039"
         inkscape:connector-curvature="0" />
      <path
         inkscape:connector-curvature="0"
         id="path4200"
         d="m 64,956.36216 -8,8 12,12 -12,12 8,8 12,-12 12,12 8,-8 -12,-12 12,-12 -8,-8 -12,12 -12,-12 z"
         style="fill:#ffffff;fill-opacity:1;fill-rule:evenodd;stroke:none;stroke-width:1px;stroke-linecap:butt;stroke-linejoin:miter;stroke-opacity:1" />
    </g>
  </g>
</svg>
