<?xml version="1.0" encoding="UTF-8" standalone="no"?>
<!-- Created with Inkscape (http://www.inkscape.org/) -->

<svg
   xmlns:dc="http://purl.org/dc/elements/1.1/"
   xmlns:cc="http://creativecommons.org/ns#"
   xmlns:rdf="http://www.w3.org/1999/02/22-rdf-syntax-ns#"
   xmlns:svg="http://www.w3.org/2000/svg"
   xmlns="http://www.w3.org/2000/svg"
   xmlns:sodipodi="http://sodipodi.sourceforge.net/DTD/sodipodi-0.dtd"
   xmlns:inkscape="http://www.inkscape.org/namespaces/inkscape"
   width="256"
   height="256"
   viewBox="0 0 256 256"
   id="svg4742"
   version="1.1"
   inkscape:version="0.91 r13725"
   sodipodi:docname="utilities-terminal.svg">
  <defs
     id="defs4744" />
  <sodipodi:namedview
     id="base"
     pagecolor="#ffffff"
     bordercolor="#666666"
     borderopacity="1.0"
     inkscape:pageopacity="0.0"
     inkscape:pageshadow="2"
     inkscape:zoom="1"
     inkscape:cx="-109.64612"
     inkscape:cy="172.54992"
     inkscape:document-units="px"
     inkscape:current-layer="layer1"
     showgrid="false"
     units="px"
     inkscape:window-width="1920"
     inkscape:window-height="1027"
     inkscape:window-x="-8"
     inkscape:window-y="-8"
     inkscape:window-maximized="1"
     showguides="false"
     inkscape:guide-bbox="true"
     inkscape:snap-intersection-paths="true"
     inkscape:object-nodes="true">
    <inkscape:grid
       type="xygrid"
       id="grid5290"
       empspacing="4" />
    <sodipodi:guide
       position="0,80"
       orientation="0,1"
       id="guide4148" />
    <sodipodi:guide
       position="80,256"
       orientation="1,0"
       id="guide4150" />
    <sodipodi:guide
       position="176,256"
       orientation="1,0"
       id="guide4152" />
    <sodipodi:guide
       position="0,176"
       orientation="0,1"
       id="guide4154" />
    <sodipodi:guide
       position="0,208"
       orientation="0,1"
       id="guide4156" />
    <sodipodi:guide
       position="0,48"
       orientation="0,1"
       id="guide4158" />
    <sodipodi:guide
       position="8,256"
       orientation="1,0"
       id="guide4160" />
    <sodipodi:guide
       position="248,256"
       orientation="1,0"
       id="guide4162" />
    <sodipodi:guide
       position="0,232"
       orientation="0,1"
       id="guide4164" />
    <sodipodi:guide
       position="0,24"
       orientation="0,1"
       id="guide4166" />
    <sodipodi:guide
       position="24,256"
       orientation="1,0"
       id="guide4168" />
    <sodipodi:guide
       position="0,248"
       orientation="0,1"
       id="guide4170" />
    <sodipodi:guide
       position="208,256"
       orientation="1,0"
       id="guide4174" />
    <sodipodi:guide
       position="232,256"
       orientation="1,0"
       id="guide4176" />
    <sodipodi:guide
       position="0,8"
       orientation="0,1"
       id="guide4178" />
    <sodipodi:guide
       position="48,256"
       orientation="1,0"
       id="guide4775" />
  </sodipodi:namedview>
  <metadata
     id="metadata4747">
    <rdf:RDF>
      <cc:Work
         rdf:about="">
        <dc:format>image/svg+xml</dc:format>
        <dc:type
           rdf:resource="http://purl.org/dc/dcmitype/StillImage" />
        <dc:title />
      </cc:Work>
    </rdf:RDF>
  </metadata>
  <g
     inkscape:label="Layer 1"
     inkscape:groupmode="layer"
     id="layer1"
     transform="translate(0,-796.36216)">
    <g
       id="g4768">
      <rect
         transform="matrix(0,1,-1,0,0,0)"
         style="opacity:1;fill:#37474f;fill-opacity:1;stroke:none;stroke-width:1;stroke-miterlimit:4;stroke-dasharray:none;stroke-dashoffset:0;stroke-opacity:1"
         id="rect4711"
         width="160"
         height="240"
         x="844.36218"
         y="-248"
         ry="8" />
      <circle
         r="4"
         cy="856.36218"
         cx="236"
         id="path4167"
         style="opacity:1;fill:#455a64;fill-opacity:1;stroke:none;stroke-width:1;stroke-miterlimit:4;stroke-dasharray:none;stroke-dashoffset:0;stroke-opacity:0.25098039" />
      <circle
         style="opacity:1;fill:#455a64;fill-opacity:1;stroke:none;stroke-width:1;stroke-miterlimit:4;stroke-dasharray:none;stroke-dashoffset:0;stroke-opacity:0.25098039"
         id="circle4173"
         cx="224"
         cy="856.36218"
         r="4" />
      <circle
         r="4"
         cy="856.36218"
         cx="212"
         id="circle4175"
         style="opacity:1;fill:#455a64;fill-opacity:1;stroke:none;stroke-width:1;stroke-miterlimit:4;stroke-dasharray:none;stroke-dashoffset:0;stroke-opacity:0.25098039" />
      <path
         id="rect4179"
         transform="translate(0,796.36216)"
         d="M 8 192 L 8 200 C 8 204.43202 11.568 208 16 208 L 240 208 C 244.432 208 248 204.43202 248 200 L 248 192 L 8 192 z "
         style="opacity:1;fill:#455a64;fill-opacity:1;stroke:none;stroke-width:1;stroke-miterlimit:4;stroke-dasharray:none;stroke-dashoffset:0;stroke-opacity:1" />
      <rect
         y="892.36218"
         x="52"
         height="4"
         width="24"
         id="rect4165"
         style="opacity:1;fill:#ffffff;fill-opacity:1;stroke:none;stroke-width:1;stroke-miterlimit:4;stroke-dasharray:none;stroke-dashoffset:0;stroke-opacity:0.25098039" />
      <rect
         ry="0"
         y="856.36218"
         x="30"
         height="40"
         width="4"
         id="rect4174"
         style="opacity:1;fill:#ffffff;fill-opacity:1;stroke:none;stroke-width:1;stroke-miterlimit:4;stroke-dasharray:none;stroke-dashoffset:0;stroke-opacity:0.25098039" />
      <g
         id="text4176"
         style="font-style:normal;font-variant:normal;font-weight:normal;font-stretch:normal;font-size:42.64387512px;line-height:125%;font-family:Courier;-inkscape-font-specification:Courier;letter-spacing:0px;word-spacing:0px;fill:#ffffff;fill-opacity:1;stroke:none;stroke-width:1px;stroke-linecap:butt;stroke-linejoin:miter;stroke-opacity:1"
         transform="scale(1.0040207,0.99599541)">
        <path
           sodipodi:nodetypes="scccsccccsscscccccscssccccscsscscss"
           inkscape:connector-curvature="0"
           id="path4181"
           d="m 43.823798,886.53844 c 0,1.20769 -0.28457,2.40149 -0.85371,3.58142 -0.555259,1.17993 -1.339562,2.17939 -2.352909,2.9984 -1.110517,0.88841 -2.408435,1.58249 -3.893752,2.08222 -1.471436,0.49973 -3.248264,0.7496 -5.330485,0.7496 -2.234917,0 -4.24773,-0.20822 -6.038439,-0.62467 -1.776828,-0.41644 -4.4386,-1.38338 -5.434595,-2.3874 l 0,-5.0201 0,0 c 1.568607,1.30486 3.671649,2.70169 5.726106,3.40964 2.054457,0.70795 3.983982,1.06193 5.788573,1.06193 2.55419,0 4.53924,-0.47891 5.95515,-1.43673 1.429791,-0.95782 2.144687,-2.23492 2.144687,-3.83129 0,-1.37427 -0.340096,-2.38761 -1.020288,-3.04004 -0.666311,-0.65243 -1.686599,-1.1591 -3.060864,-1.52002 -1.04111,-0.27763 -2.17245,-0.50667 -3.394019,-0.68713 -1.207688,-0.18046 -2.491724,-0.40951 -3.852108,-0.68714 -2.748531,-0.58302 -4.789107,-1.57554 -6.121728,-2.97757 -1.31874,-1.41591 -1.97811,-3.25521 -1.97811,-5.51788 0,-2.59584 1.096636,-4.71971 3.289909,-6.3716 2.193272,-1.66577 4.976507,-2.49866 8.349704,-2.49866 2.179391,0 4.178322,0.20822 5.996795,0.62466 1.818473,0.41645 3.682059,0.77259 5.084087,1.38337 l 0,5.02011 0,0 c -0.995995,-1.00403 -3.279496,-1.81565 -5.20902,-2.46808 -1.915643,-0.66631 -3.879871,-0.99947 -5.892684,-0.99947 -2.207154,0 -3.983982,0.45809 -5.330485,1.37427 -1.332621,0.91617 -1.998931,2.0961 -1.998931,3.53977 0,1.29098 0.333155,2.30433 0.999465,3.04005 0.666311,0.73571 1.839295,1.29791 3.518953,1.68659 0.888414,0.19434 2.151628,0.43033 3.789641,0.70796 1.638013,0.27763 3.02616,0.5622 4.164441,0.85371 2.304324,0.61079 4.039508,1.5339 5.205551,2.76935 1.166043,1.23545 1.749065,2.9637 1.749065,5.18473 z" />
      </g>
    </g>
  </g>
</svg>
